<?xml version="1.0" encoding="UTF-8"?>
<svg opacity=".7" version="1.1" viewBox="0 0 800 800" xmlns="http://www.w3.org/2000/svg">
<g fill="#fff" stroke-width="4">
<circle r="4.9211"/>
<circle cx="61.538" r="4.9211"/>
<circle cx="123.08" r="4.9211"/>
<circle cx="184.62" r="4.9211"/>
<circle cx="246.15" r="4.9211"/>
<circle cx="307.69" r="4.9211"/>
<circle cx="369.23" r="4.9211"/>
<circle cx="430.77" r="4.9211"/>
<circle cx="492.31" r="4.9211"/>
<circle cx="553.85" r="4.9211"/>
<circle cx="615.38" r="4.9211"/>
<circle cx="676.92" r="4.9211"/>
<circle cx="738.46" r="4.9211"/>
<circle cx="800" r="4.9211"/>
<circle cy="66.667" r="4.9211"/>
<circle cx="61.538" cy="66.667" r="4.9211"/>
<circle cx="123.08" cy="66.667" r="4.9211"/>
<circle cx="184.62" cy="66.667" r="4.9211"/>
<circle cx="246.15" cy="66.667" r="4.9211"/>
<circle cx="307.69" cy="66.667" r="4.9211"/>
<circle cx="369.23" cy="66.667" r="4.9211"/>
<circle cx="430.77" cy="66.667" r="4.9211"/>
<circle cx="492.31" cy="66.667" r="4.9211"/>
<circle cx="553.85" cy="66.667" r="4.9211"/>
<circle cx="615.38" cy="66.667" r="4.9211"/>
<circle cx="676.92" cy="66.667" r="4.9211"/>
<circle cx="738.46" cy="66.667" r="4.9211"/>
<circle cx="800" cy="66.667" r="4.9211"/>
<circle cy="133.33" r="4.9211"/>
<circle cx="61.538" cy="133.33" r="4.9211"/>
<circle cx="123.08" cy="133.33" r="4.9211"/>
<circle cx="184.62" cy="133.33" r="4.9211"/>
<circle cx="246.15" cy="133.33" r="4.9211"/>
<circle cx="307.69" cy="133.33" r="4.9211"/>
<circle cx="369.23" cy="133.33" r="4.9211"/>
<circle cx="430.77" cy="133.33" r="4.9211"/>
<circle cx="492.31" cy="133.33" r="4.9211"/>
<circle cx="553.85" cy="133.33" r="4.9211"/>
<circle cx="615.38" cy="133.33" r="4.9211"/>
<circle cx="676.92" cy="133.33" r="4.9211"/>
<circle cx="738.46" cy="133.33" r="4.9211"/>
<circle cx="800" cy="133.33" r="4.9211"/>
<circle cy="200" r="4.9211"/>
<circle cx="61.538" cy="200" r="4.9211"/>
<circle cx="123.08" cy="200" r="4.9211"/>
<circle cx="184.62" cy="200" r="4.9211"/>
<circle cx="246.15" cy="200" r="4.9211"/>
<circle cx="307.69" cy="200" r="4.9211"/>
<circle cx="369.23" cy="200" r="4.9211"/>
<circle cx="430.77" cy="200" r="4.9211"/>
<circle cx="492.31" cy="200" r="4.9211"/>
<circle cx="553.85" cy="200" r="4.9211"/>
<circle cx="615.38" cy="200" r="4.9211"/>
<circle cx="676.92" cy="200" r="4.9211"/>
<circle cx="738.46" cy="200" r="4.9211"/>
<circle cx="800" cy="200" r="4.9211"/>
<circle cy="266.67" r="4.9211"/>
<circle cx="61.538" cy="266.67" r="4.9211"/>
<circle cx="123.08" cy="266.67" r="4.9211"/>
<circle cx="184.62" cy="266.67" r="4.9211"/>
<circle cx="246.15" cy="266.67" r="4.9211"/>
<circle cx="307.69" cy="266.67" r="4.9211"/>
<circle cx="369.23" cy="266.67" r="4.9211"/>
<circle cx="430.77" cy="266.67" r="4.9211"/>
<circle cx="492.31" cy="266.67" r="4.9211"/>
<circle cx="553.85" cy="266.67" r="4.9211"/>
<circle cx="615.38" cy="266.67" r="4.9211"/>
<circle cx="676.92" cy="266.67" r="4.9211"/>
<circle cx="738.46" cy="266.67" r="4.9211"/>
<circle cx="800" cy="266.67" r="4.9211"/>
<circle cy="333.33" r="4.9211"/>
<circle cx="61.538" cy="333.33" r="4.9211"/>
<circle cx="123.08" cy="333.33" r="4.9211"/>
<circle cx="184.62" cy="333.33" r="4.9211"/>
<circle cx="246.15" cy="333.33" r="4.9211"/>
<circle cx="307.69" cy="333.33" r="4.9211"/>
<circle cx="369.23" cy="333.33" r="4.9211"/>
<circle cx="430.77" cy="333.33" r="4.9211"/>
<circle cx="492.31" cy="333.33" r="4.9211"/>
<circle cx="553.85" cy="333.33" r="4.9211"/>
<circle cx="615.38" cy="333.33" r="4.9211"/>
<circle cx="676.92" cy="333.33" r="4.9211"/>
<circle cx="738.46" cy="333.33" r="4.9211"/>
<circle cx="800" cy="333.33" r="4.9211"/>
<circle cy="400" r="4.9211"/>
<circle cx="61.538" cy="400" r="4.9211"/>
<circle cx="123.08" cy="400" r="4.9211"/>
<circle cx="184.62" cy="400" r="4.9211"/>
<circle cx="246.15" cy="400" r="4.9211"/>
<circle cx="307.69" cy="400" r="4.9211"/>
<circle cx="369.23" cy="400" r="4.9211"/>
<circle cx="430.77" cy="400" r="4.9211"/>
<circle cx="492.31" cy="400" r="4.9211"/>
<circle cx="553.85" cy="400" r="4.9211"/>
<circle cx="615.38" cy="400" r="4.9211"/>
<circle cx="676.92" cy="400" r="4.9211"/>
<circle cx="738.46" cy="400" r="4.9211"/>
<circle cx="800" cy="400" r="4.9211"/>
<circle cy="466.67" r="4.9211"/>
<circle cx="61.538" cy="466.67" r="4.9211"/>
<circle cx="123.08" cy="466.67" r="4.9211"/>
<circle cx="184.62" cy="466.67" r="4.9211"/>
<circle cx="246.15" cy="466.67" r="4.9211"/>
<circle cx="307.69" cy="466.67" r="4.9211"/>
<circle cx="369.23" cy="466.67" r="4.9211"/>
<circle cx="430.77" cy="466.67" r="4.9211"/>
<circle cx="492.31" cy="466.67" r="4.9211"/>
<circle cx="553.85" cy="466.67" r="4.9211"/>
<circle cx="615.38" cy="466.67" r="4.9211"/>
<circle cx="676.92" cy="466.67" r="4.9211"/>
<circle cx="738.46" cy="466.67" r="4.9211"/>
<circle cx="800" cy="466.67" r="4.9211"/>
<circle cy="533.33" r="4.9211"/>
<circle cx="61.538" cy="533.33" r="4.9211"/>
<circle cx="123.08" cy="533.33" r="4.9211"/>
<circle cx="184.62" cy="533.33" r="4.9211"/>
<circle cx="246.15" cy="533.33" r="4.9211"/>
<circle cx="307.69" cy="533.33" r="4.9211"/>
<circle cx="369.23" cy="533.33" r="4.9211"/>
<circle cx="430.77" cy="533.33" r="4.9211"/>
<circle cx="492.31" cy="533.33" r="4.9211"/>
<circle cx="553.85" cy="533.33" r="4.9211"/>
<circle cx="615.38" cy="533.33" r="4.9211"/>
<circle cx="676.92" cy="533.33" r="4.9211"/>
<circle cx="738.46" cy="533.33" r="4.9211"/>
<circle cx="800" cy="533.33" r="4.9211"/>
<circle cy="600" r="4.9211"/>
<circle cx="61.538" cy="600" r="4.9211"/>
<circle cx="123.08" cy="600" r="4.9211"/>
<circle cx="184.62" cy="600" r="4.9211"/>
<circle cx="246.15" cy="600" r="4.9211"/>
<circle cx="307.69" cy="600" r="4.9211"/>
<circle cx="369.23" cy="600" r="4.9211"/>
<circle cx="430.77" cy="600" r="4.9211"/>
<circle cx="492.31" cy="600" r="4.9211"/>
<circle cx="553.85" cy="600" r="4.9211"/>
<circle cx="615.38" cy="600" r="4.9211"/>
<circle cx="676.92" cy="600" r="4.9211"/>
<circle cx="738.46" cy="600" r="4.9211"/>
<circle cx="800" cy="600" r="4.9211"/>
<circle cy="666.67" r="4.9211"/>
<circle cx="61.538" cy="666.67" r="4.9211"/>
<circle cx="123.08" cy="666.67" r="4.9211"/>
<circle cx="184.62" cy="666.67" r="4.9211"/>
<circle cx="246.15" cy="666.67" r="4.9211"/>
<circle cx="307.69" cy="666.67" r="4.9211"/>
<circle cx="369.23" cy="666.67" r="4.9211"/>
<circle cx="430.77" cy="666.67" r="4.9211"/>
<circle cx="492.31" cy="666.67" r="4.9211"/>
<circle cx="553.85" cy="666.67" r="4.9211"/>
<circle cx="615.38" cy="666.67" r="4.9211"/>
<circle cx="676.92" cy="666.67" r="4.9211"/>
<circle cx="738.46" cy="666.67" r="4.9211"/>
<circle cx="800" cy="666.67" r="4.9211"/>
<circle cy="733.33" r="4.9211"/>
<circle cx="61.538" cy="733.33" r="4.9211"/>
<circle cx="123.08" cy="733.33" r="4.9211"/>
<circle cx="184.62" cy="733.33" r="4.9211"/>
<circle cx="246.15" cy="733.33" r="4.9211"/>
<circle cx="307.69" cy="733.33" r="4.9211"/>
<circle cx="369.23" cy="733.33" r="4.9211"/>
<circle cx="430.77" cy="733.33" r="4.9211"/>
<circle cx="492.31" cy="733.33" r="4.9211"/>
<circle cx="553.85" cy="733.33" r="4.9211"/>
<circle cx="615.38" cy="733.33" r="4.9211"/>
<circle cx="676.92" cy="733.33" r="4.9211"/>
<circle cx="738.46" cy="733.33" r="4.9211"/>
<circle cx="800" cy="733.33" r="4.9211"/>
<circle cy="800" r="4.9211"/>
<circle cx="61.538" cy="800" r="4.9211"/>
<circle cx="123.08" cy="800" r="4.9211"/>
<circle cx="184.62" cy="800" r="4.9211"/>
<circle cx="246.15" cy="800" r="4.9211"/>
<circle cx="307.69" cy="800" r="4.9211"/>
<circle cx="369.23" cy="800" r="4.9211"/>
<circle cx="430.77" cy="800" r="4.9211"/>
<circle cx="492.31" cy="800" r="4.9211"/>
<circle cx="553.85" cy="800" r="4.9211"/>
<circle cx="615.38" cy="800" r="4.9211"/>
<circle cx="676.92" cy="800" r="4.9211"/>
<circle cx="738.46" cy="800" r="4.9211"/>
<circle cx="800" cy="800" r="4.9211"/>
</g>
</svg>
